<?xml version="1.0" standalone="no"?>
<!DOCTYPE svg PUBLIC "-//W3C//DTD SVG 20010904//EN"
 "http://www.w3.org/TR/2001/REC-SVG-20010904/DTD/svg10.dtd">
<svg version="1.0" xmlns="http://www.w3.org/2000/svg"
 width="477.000000pt" height="492.000000pt" viewBox="0 0 477.000000 492.000000"
 preserveAspectRatio="xMidYMid meet">
<metadata>
Created by potrace 1.16, written by Peter Selinger 2001-2019
</metadata>
<g transform="translate(0.000000,492.000000) scale(0.100000,-0.100000)"
fill="#000000" stroke="none">
<path d="M3406 4890 c-32 -17 -64 -30 -71 -30 -7 0 -39 -30 -71 -66 -45 -52
-58 -74 -58 -100 -1 -21 -7 -36 -16 -39 -17 -6 -85 -199 -76 -214 3 -5 -3 -7
-14 -4 -11 3 -20 8 -20 12 0 8 -70 12 -90 5 -12 -4 -10 -9 10 -24 14 -11 20
-20 13 -20 -6 0 -24 10 -40 23 -33 27 -77 47 -102 47 -10 0 -21 9 -24 19 -6
25 -81 49 -105 34 -20 -12 -22 -45 -4 -51 7 -2 10 2 6 12 -4 11 -1 16 10 16 9
0 16 -8 16 -20 0 -12 7 -20 16 -20 13 0 15 -7 10 -35 -10 -50 15 -70 94 -78
61 -7 85 -20 73 -41 -3 -5 -1 -6 5 -2 7 4 12 2 12 -3 0 -6 7 -11 15 -11 7 0
19 -8 24 -17 9 -15 10 -14 11 10 0 33 18 36 24 5 15 -73 -2 -103 -60 -106 -24
-1 -44 3 -44 8 0 6 -13 10 -30 10 -25 0 -30 4 -30 24 0 13 -7 27 -16 30 -23 9
-24 8 -24 -14 0 -11 -5 -20 -11 -20 -5 0 -7 5 -4 10 4 6 -8 25 -27 43 -28 28
-41 34 -83 35 -27 0 -44 -1 -37 -4 14 -7 17 -34 3 -34 -5 0 -13 9 -16 20 -5
14 -15 20 -38 20 -18 1 -43 7 -57 15 -36 21 -77 19 -90 -5 -6 -11 -16 -17 -25
-14 -9 4 -22 1 -30 -6 -18 -15 -20 1 -3 18 8 8 5 14 -15 21 -51 19 -85 -17
-39 -40 l27 -13 -32 -4 c-21 -2 -33 -9 -33 -18 0 -8 4 -13 9 -10 5 4 11 0 14
-6 3 -10 9 -9 23 3 10 9 26 14 34 11 24 -8 71 -66 57 -71 -7 -2 -33 -21 -59
-42 -26 -22 -56 -39 -66 -39 -11 0 -22 -5 -24 -11 -2 -6 -15 -12 -29 -12 -21
-2 -25 -7 -25 -34 0 -20 5 -33 13 -33 7 0 10 7 7 15 -4 10 0 15 10 15 9 0 19
7 22 15 3 8 22 19 41 24 36 10 67 5 57 -10 -3 -5 2 -9 12 -9 27 0 -3 -29 -40
-38 -29 -8 -31 -11 -34 -59 -3 -43 0 -54 19 -67 18 -12 20 -18 10 -29 -6 -8
-8 -22 -5 -31 5 -14 2 -16 -20 -10 -15 3 -32 1 -40 -5 -7 -6 -21 -9 -30 -5 -9
3 -16 2 -16 -3 0 -5 -14 -7 -31 -5 -20 3 -34 0 -40 -9 -6 -10 -11 -11 -19 -3
-8 8 -8 14 -1 18 5 4 8 12 5 19 -3 8 8 12 33 11 44 -1 73 21 103 78 11 21 20
40 20 42 0 2 -16 7 -35 10 -25 5 -40 3 -51 -8 -8 -8 -20 -13 -27 -10 -7 2 -30
-2 -50 -11 -28 -12 -37 -21 -37 -40 0 -13 -12 -37 -26 -52 l-26 -28 7 25 c3
14 7 30 9 35 2 12 30 75 53 121 8 18 12 41 9 52 -6 16 -2 19 24 18 16 -1 30
-4 30 -8 0 -5 3 -8 8 -8 4 0 8 33 9 74 0 41 6 83 12 94 6 11 11 43 11 70 0 32
5 54 15 62 22 18 18 37 -7 44 -32 8 -50 7 -44 -2 3 -4 -8 -13 -25 -19 -32 -12
-33 -11 -19 17 6 11 14 29 20 39 7 14 5 21 -6 25 -24 9 -35 -3 -28 -30 7 -27
-2 -30 -39 -13 -20 9 -32 7 -61 -6 -33 -16 -37 -21 -31 -44 6 -25 6 -25 -9 -6
-13 16 -17 17 -25 6 -5 -7 -6 -21 -4 -31 4 -15 1 -17 -16 -13 -11 3 -18 10
-14 16 3 6 1 7 -5 3 -7 -4 -12 -1 -12 8 0 10 -9 16 -23 16 -17 0 -23 6 -25 25
-1 13 3 27 8 30 17 10 11 25 -12 34 -27 10 -58 -3 -58 -24 0 -7 -12 -23 -26
-34 l-25 -20 23 1 c13 1 28 5 34 10 8 5 13 1 17 -12 3 -12 13 -20 27 -20 30 0
65 -43 80 -98 7 -26 20 -55 27 -64 9 -10 12 -25 8 -37 -5 -15 -2 -21 9 -21 9
0 16 -5 16 -11 0 -6 -7 -8 -16 -5 -15 6 -16 -1 -9 -66 4 -40 7 -125 7 -188 -2
-119 9 -230 34 -337 21 -92 19 -107 -18 -135 -35 -26 -113 -58 -141 -58 -9 0
-25 -4 -35 -10 -30 -17 -124 -40 -135 -33 -7 4 -8 0 -4 -11 4 -10 7 -20 7 -22
0 -3 5 -2 10 1 6 3 10 1 10 -4 0 -22 -26 -10 -42 19 -10 17 -25 33 -35 37 -10
3 -33 19 -51 35 -18 15 -39 28 -47 28 -8 0 -33 16 -55 36 -22 20 -43 35 -45
32 -3 -2 0 -19 5 -37 20 -71 16 -182 -9 -261 -13 -41 -33 -87 -43 -102 -10
-14 -18 -34 -18 -45 0 -24 -51 -143 -62 -143 -4 0 -8 -7 -8 -15 0 -8 -4 -15
-9 -15 -5 0 -12 -8 -16 -19 -6 -21 -32 -51 -56 -66 -9 -5 -35 -23 -59 -39 -41
-27 -57 -33 -88 -35 -17 -1 -52 -38 -52 -55 0 -23 31 -49 43 -37 17 17 31 13
17 -4 -7 -8 -9 -22 -6 -31 5 -14 10 -12 27 10 16 20 29 26 60 26 22 0 38 4 35
8 -6 10 57 47 97 56 32 8 34 17 7 41 -24 22 -25 38 -3 76 17 29 50 35 82 15 8
-5 14 -1 17 11 3 11 18 27 33 36 25 15 30 15 50 1 12 -9 26 -26 30 -38 7 -16
17 -21 42 -21 31 0 34 3 39 35 4 20 10 42 15 49 5 10 4 12 -3 7 -7 -4 -12 -1
-12 8 0 13 13 21 23 14 4 -4 47 37 47 45 0 5 -7 1 -16 -7 -8 -9 -19 -14 -24
-11 -5 3 -10 0 -12 -7 -3 -7 -12 -9 -23 -4 -16 6 -17 9 -5 16 8 5 15 15 15 22
0 7 11 15 25 16 14 2 31 9 38 14 7 6 15 8 19 4 3 -3 1 -6 -6 -6 -8 0 -9 -6 -3
-17 15 -31 14 -83 -3 -89 -8 -3 -13 -9 -11 -13 7 -11 61 -7 58 4 -5 15 41 24
57 11 12 -9 13 -7 9 12 -4 13 -1 25 7 30 17 10 29 68 16 77 -21 12 -12 45 12
45 16 0 18 3 8 9 -18 11 -5 31 20 31 18 0 23 -13 20 -52 -1 -9 3 -19 9 -23 5
-3 10 -17 10 -31 0 -18 -5 -24 -21 -24 -12 0 -32 -12 -45 -27 -27 -31 -33 -53
-8 -28 15 15 18 15 34 0 12 -11 26 -14 41 -10 13 5 19 3 15 -3 -3 -5 1 -12 9
-16 8 -3 15 -1 15 5 0 6 5 7 10 4 6 -3 10 -2 10 4 0 5 -6 12 -12 14 -8 4 -7 6
4 6 9 1 23 -12 32 -29 8 -16 10 -30 5 -30 -6 0 -7 -5 -3 -11 3 -6 1 -15 -5
-19 -9 -5 -9 -11 3 -23 9 -8 16 -25 16 -36 0 -12 5 -21 12 -21 6 0 9 -3 6 -6
-12 -12 -58 29 -58 51 0 12 -6 27 -13 33 -21 18 -13 -45 10 -72 10 -12 -7 4
-38 36 -63 65 -101 80 -74 28 8 -16 15 -36 15 -45 0 -10 5 -13 12 -9 8 5 9 0
6 -14 -4 -12 -2 -25 3 -28 5 -3 9 3 9 13 0 15 4 14 20 -7 25 -32 25 -39 1 -33
-32 8 -37 -18 -6 -42 20 -16 23 -24 14 -28 -12 -4 -11 -7 1 -16 8 -6 10 -11 4
-11 -5 0 -23 13 -38 29 -18 19 -34 27 -47 24 -15 -4 -17 -8 -8 -19 9 -11 8
-14 -5 -14 -9 0 -16 -8 -16 -21 0 -11 5 -17 10 -14 6 3 10 -1 10 -10 0 -12 -6
-15 -22 -10 -22 8 -22 9 0 -44 4 -11 -1 -12 -23 -7 -25 6 -27 5 -15 -9 7 -8
10 -18 7 -22 -4 -3 1 -12 11 -19 16 -12 16 -13 0 -14 -9 0 -23 8 -30 18 -16
22 -63 46 -75 39 -5 -3 -38 21 -73 54 -36 33 -66 56 -68 51 -5 -15 38 -81 60
-93 11 -6 17 -13 14 -16 -7 -8 34 -86 50 -96 8 -4 14 -13 14 -18 0 -13 -60 28
-78 53 -7 10 -20 18 -29 18 -9 0 -25 7 -35 17 -11 9 -18 11 -18 5 0 -7 -7 -12
-15 -12 -18 0 -19 -12 -3 -28 9 -9 9 -12 -1 -12 -9 0 -11 -8 -7 -26 6 -24 5
-26 -18 -22 -75 15 36 -47 122 -67 28 -7 52 -8 52 -4 0 16 47 9 62 -8 8 -10
13 -28 12 -41 0 -12 3 -22 8 -22 5 0 4 -9 -2 -19 -5 -11 -7 -26 -4 -35 10 -27
-5 -37 -31 -20 -23 15 -26 14 -47 -8 -22 -24 -64 -46 -54 -29 3 5 -7 9 -22 9
-15 0 -30 -5 -33 -11 -4 -5 -22 6 -43 27 -55 55 -79 45 -31 -12 14 -17 25 -36
25 -44 0 -8 10 -19 23 -25 30 -14 62 -75 53 -99 -7 -18 -8 -18 -17 -2 -9 17
-33 24 -111 33 -42 5 -47 -1 -20 -21 14 -12 15 -13 1 -8 -22 7 -33 -11 -20
-33 6 -10 11 -13 11 -6 0 14 33 11 99 -10 33 -10 46 -21 57 -45 12 -29 3 -55
-11 -32 -3 5 -15 10 -26 10 -11 0 -22 7 -25 15 -4 8 -10 12 -15 9 -5 -3 -9 -1
-9 3 0 5 -6 17 -13 27 -26 35 -27 -8 -3 -55 13 -24 26 -61 29 -82 6 -37 5 -38
-21 -37 -67 5 -77 -5 -42 -40 16 -16 18 -25 10 -45 -6 -15 -10 -39 -10 -54 0
-24 -4 -28 -30 -29 -23 0 -30 4 -30 19 0 10 -4 19 -8 19 -17 0 -21 -13 -9 -32
10 -16 8 -22 -12 -37 -13 -10 -32 -16 -41 -14 -18 5 -35 -21 -24 -38 17 -29
-57 12 -96 51 -32 33 -39 36 -78 32 -37 -4 -41 -6 -30 -20 7 -8 26 -21 43 -28
21 -9 24 -13 11 -14 -14 0 -16 -3 -7 -13 15 -19 3 -28 -25 -21 -29 7 -30 -5
-4 -38 19 -25 20 -51 1 -85 -6 -12 -6 -25 0 -34 5 -7 9 -9 9 -4 0 6 4 4 9 -4
6 -10 15 -2 32 28 13 23 38 51 56 62 33 20 33 20 61 1 15 -11 36 -22 47 -24
11 -1 25 -9 31 -17 9 -11 17 -12 42 -3 19 6 32 7 32 2 0 -6 9 -2 20 7 16 14
20 30 20 79 0 45 4 65 16 75 15 12 16 11 11 -6 -3 -11 -8 -42 -11 -70 -5 -44
-5 -46 4 -18 8 23 18 35 38 39 39 10 44 14 32 29 -14 17 8 105 26 98 21 -8 25
32 8 66 -10 20 -13 36 -7 40 5 3 9 17 9 30 0 14 9 30 23 40 23 15 24 15 13 -6
-7 -12 -12 -29 -12 -38 0 -14 2 -15 21 -1 18 13 23 12 40 -2 10 -9 19 -27 19
-39 0 -27 16 -31 24 -6 2 10 5 5 4 -12 0 -50 1 -55 21 -55 11 0 22 -4 26 -10
3 -5 12 -7 19 -4 7 3 16 -2 19 -10 4 -9 13 -16 22 -16 19 0 55 -31 55 -48 0
-7 4 -11 9 -8 5 3 26 -2 47 -11 22 -10 54 -18 72 -19 39 -1 61 -27 62 -71 0
-51 -15 -79 -41 -78 -37 2 -79 23 -79 39 0 8 -9 18 -20 21 -12 4 -20 15 -20
30 0 17 -4 22 -18 18 -10 -2 -26 5 -36 16 -11 12 -24 21 -30 21 -6 0 -4 -4 4
-10 21 -13 8 -21 -37 -23 -32 -1 -44 -7 -61 -30 -23 -33 -19 -57 9 -57 10 0
34 -9 54 -20 27 -15 41 -17 61 -10 36 14 39 13 19 -10 -10 -11 -15 -20 -10
-20 4 0 -2 -8 -14 -17 -15 -13 -18 -22 -11 -33 8 -13 12 -12 25 8 19 26 45 29
45 4 0 -10 5 -23 10 -28 7 -7 6 -20 -4 -40 -19 -36 -8 -47 38 -39 38 8 43 14
24 33 -6 6 -13 32 -14 57 -3 41 0 47 23 56 25 9 42 0 43 -23 0 -5 7 -8 15 -8
8 0 15 -6 15 -12 0 -7 6 -25 14 -40 13 -24 12 -27 -4 -31 -11 -3 -26 -22 -34
-42 -20 -47 -20 -48 4 -42 11 3 20 1 20 -4 0 -5 -15 -9 -34 -9 -26 0 -36 -5
-41 -20 -3 -11 -11 -20 -16 -20 -6 0 -9 -8 -8 -17 6 -45 -23 -144 -50 -171
-17 -16 -20 -80 -6 -138 5 -22 2 -34 -9 -43 -18 -15 -22 -76 -6 -86 17 -11 67
5 92 28 13 12 35 28 49 34 26 14 89 15 89 2 0 -4 17 -11 38 -15 20 -4 50 -13
65 -21 40 -20 45 -9 7 13 -31 19 -36 44 -11 52 8 3 11 0 7 -6 -10 -17 10 -23
38 -12 30 11 34 40 7 47 -11 3 -22 11 -25 19 -4 11 1 13 22 8 43 -11 70 -22
76 -33 3 -5 19 -12 34 -16 21 -4 28 -12 30 -32 3 -33 12 -44 12 -15 0 28 7 28
61 -6 50 -33 68 -52 74 -80 2 -11 8 -36 13 -56 8 -29 8 -36 -4 -36 -8 0 -14
-4 -14 -8 0 -13 53 -8 58 6 2 7 -4 19 -13 26 -27 19 -16 60 18 64 22 3 27 -1
27 -17 0 -15 5 -19 16 -14 12 4 15 1 12 -13 -2 -11 -11 -18 -21 -18 -9 1 -17
-2 -17 -7 0 -11 -1 -11 60 2 27 6 48 15 44 20 -3 5 14 29 39 52 24 24 56 66
72 95 20 36 36 54 54 59 39 9 56 41 56 105 0 102 31 99 103 -12 46 -70 78
-110 85 -104 11 11 54 -57 80 -126 40 -106 50 -124 70 -128 23 -5 22 23 -2 84
-11 27 -27 75 -35 106 -9 31 -28 71 -43 89 l-27 32 24 -14 c14 -7 33 -14 43
-15 15 -1 14 5 -11 49 -22 39 -37 54 -67 64 -21 7 -47 21 -57 30 -28 25 -76
119 -83 163 -4 25 -12 40 -21 40 -16 0 -19 26 -5 35 6 3 7 28 4 55 -4 37 -1
59 15 92 19 40 68 88 92 88 5 0 10 7 10 15 0 8 16 37 35 64 19 26 35 51 35 55
0 8 -60 -22 -82 -42 -29 -25 -21 -5 10 24 22 21 81 55 102 59 3 0 10 3 15 6
11 7 86 33 97 34 3 0 10 3 14 7 3 4 -15 5 -43 2 l-49 -6 -11 37 c-11 34 -10
38 8 42 14 4 17 11 13 29 -5 21 -3 24 20 24 14 0 26 4 26 9 0 18 37 18 59 0
13 -11 31 -19 40 -19 9 0 24 -8 33 -17 10 -10 26 -27 38 -37 28 -27 25 -45 -7
-44 -16 0 -48 -4 -73 -9 -44 -9 -44 -9 40 -15 70 -4 100 -12 164 -41 52 -24
75 -40 70 -48 -4 -8 -3 -9 4 -5 13 8 70 -34 143 -104 49 -47 98 -128 120 -195
7 -22 14 -35 16 -29 3 10 -6 58 -22 111 -5 16 -2 22 12 26 12 3 8 5 -10 6 -39
1 -30 25 11 29 18 2 32 9 32 15 0 9 3 8 8 -1 5 -7 32 -13 63 -15 52 -2 54 -1
57 26 3 21 9 27 28 27 13 0 24 5 24 10 0 6 9 10 21 10 12 0 19 5 16 13 -2 6
-12 11 -21 11 -9 -1 -17 3 -17 10 -1 6 -2 18 -3 26 0 8 -41 43 -91 78 -49 34
-98 69 -108 77 -9 8 -22 15 -27 15 -6 0 -10 4 -10 8 0 5 -19 16 -42 26 -24 10
-56 28 -73 40 -16 12 -57 36 -91 53 -62 31 -82 46 -161 117 -47 42 -50 60 -6
30 15 -10 31 -17 36 -16 4 1 7 -1 7 -5 0 -12 54 -10 62 1 4 7 15 6 30 -1 79
-36 98 -42 104 -32 9 15 4 19 -159 103 -235 121 -307 172 -307 217 0 16 -4 29
-10 29 -5 0 -25 14 -45 31 -37 33 -67 89 -80 149 -4 19 -12 38 -18 42 -15 9
-47 98 -40 114 3 8 13 14 22 14 9 0 39 11 66 25 28 13 58 25 68 25 9 0 16 3
15 8 -3 7 5 12 23 12 5 0 7 -4 4 -10 -4 -7 2 -7 19 0 22 8 25 6 31 -21 5 -22
12 -29 31 -29 13 0 24 -4 24 -10 0 -5 6 -10 14 -10 8 0 16 -7 20 -15 3 -9 16
-20 28 -26 l23 -10 -22 5 c-13 2 -23 0 -23 -5 0 -5 -10 -9 -22 -9 -17 0 -19 3
-10 9 10 6 4 10 -18 14 -36 8 -59 -8 -62 -45 -2 -18 1 -22 17 -20 11 2 23 9
27 15 6 9 8 9 8 0 0 -7 9 -13 20 -13 18 0 19 -3 10 -20 -12 -23 -35 -27 -26
-5 4 13 2 13 -14 5 -27 -15 -32 -27 -13 -34 14 -6 14 -9 -5 -22 -12 -8 -20
-20 -16 -25 3 -5 0 -16 -6 -24 -16 -19 -4 -52 21 -58 13 -4 19 -1 16 6 -5 14
22 71 30 63 3 -3 14 6 25 19 11 14 26 25 34 25 8 0 14 4 14 8 0 12 67 42 92
42 12 0 31 8 42 19 12 10 50 31 86 47 36 15 82 39 103 51 45 28 56 33 216 89
69 24 135 51 148 59 l23 15 -20 20 c-20 20 -20 22 -3 51 10 17 34 40 53 52 65
39 112 82 130 117 10 19 18 39 18 44 0 5 6 13 14 17 10 7 11 12 1 29 -7 11
-13 26 -13 34 0 8 -6 16 -14 19 -7 3 -16 22 -20 41 -7 35 -26 51 -26 21 0 -22
-46 -70 -54 -57 -3 6 -2 13 4 17 5 3 10 15 10 25 0 11 9 24 20 30 11 6 20 15
20 20 0 5 5 21 12 37 11 28 14 37 17 51 1 4 5 1 9 -6 6 -9 14 -7 30 8 28 27
29 81 1 126 -25 41 -43 44 -36 7 6 -31 -27 -83 -52 -83 -14 0 -14 -1 -1 -10
12 -8 12 -10 1 -10 -8 0 -5 -6 8 -17 18 -15 20 -24 15 -51 -6 -31 -9 -33 -37
-28 -16 3 -36 6 -43 6 -8 0 -14 7 -14 16 0 8 -4 12 -10 9 -5 -3 -10 -1 -10 5
0 5 -16 18 -35 27 -19 9 -35 21 -35 25 0 5 -12 20 -26 35 -14 14 -22 28 -19
31 4 4 19 -8 34 -27 35 -43 61 -37 61 13 0 22 6 36 16 40 22 9 24 8 24 -9 0
-8 5 -15 10 -15 6 0 13 -1 17 -2 14 -6 9 58 -6 76 -15 18 -15 19 2 13 15 -6
17 -3 12 14 -5 15 -4 19 5 14 7 -4 5 6 -5 25 -9 18 -12 29 -6 26 7 -5 11 3 11
18 0 23 -9 31 -32 27 -4 0 -5 6 -1 15 3 8 10 13 17 11 6 -2 38 7 70 20 33 13
66 23 74 23 58 0 161 147 192 273 24 100 24 117 6 179 -28 91 -52 118 -105
118 -43 0 -130 -24 -182 -51 -33 -16 -136 -92 -181 -133 -12 -10 -18 -12 -18
-4 0 6 -3 8 -7 5 -3 -4 -12 -2 -19 4 -20 16 -66 14 -107 -6 -35 -16 -38 -16
-65 0 -15 10 -34 26 -42 37 -15 17 -18 18 -52 4 -34 -15 -36 -14 -41 4 -4 15
0 20 14 20 10 0 19 4 19 10 0 5 42 29 94 54 107 52 211 138 221 186 7 33 -12
71 -32 63 -7 -3 -13 0 -13 6 0 6 4 11 8 11 4 0 14 16 21 35 7 20 19 35 28 35
13 0 12 -5 -7 -24 -22 -24 -22 -56 0 -56 5 0 10 -8 10 -17 1 -12 6 -8 17 12
19 35 27 158 9 148 -6 -3 -6 0 2 8 14 15 17 59 3 59 -5 0 -11 12 -15 28 -4 21
-22 37 -79 69 l-73 42 -95 -3 c-53 -2 -105 -8 -117 -15 -33 -18 -39 -14 -45
32 -3 24 -20 73 -36 110 l-30 67 -123 0 c-117 0 -126 -2 -182 -30z m-19 -622
c4 -7 8 -16 8 -19 0 -3 12 -20 28 -38 24 -28 27 -30 27 -12 0 24 4 25 32 10
19 -10 20 -9 14 14 -7 29 10 47 17 20 3 -10 4 -33 3 -51 -3 -34 22 -60 44 -47
17 10 12 65 -6 65 -18 0 -16 31 3 37 7 3 16 -13 23 -37 6 -23 15 -38 21 -34 6
3 8 13 4 21 -4 12 -2 13 8 5 14 -12 11 -86 -3 -77 -5 3 -11 1 -15 -5 -3 -5 0
-10 8 -10 8 0 18 -7 21 -15 3 -9 1 -15 -7 -14 -36 4 -39 -3 -9 -22 17 -12 32
-25 32 -30 0 -14 46 -40 61 -34 9 3 14 20 14 43 0 33 -3 37 -25 37 -14 0 -33
8 -42 18 -20 19 -23 37 -8 37 6 0 10 -6 10 -12 0 -8 3 -9 8 -3 9 13 82 17 82
5 0 -5 -8 -6 -17 -3 -10 4 -1 -11 20 -32 33 -35 52 -75 28 -61 -10 6 -21 -26
-21 -61 0 -13 -11 -30 -25 -39 -14 -9 -25 -22 -25 -30 0 -8 -6 -11 -15 -8 -10
4 -13 13 -9 26 4 13 2 18 -4 14 -5 -3 -10 0 -9 7 1 33 -4 47 -18 47 -8 0 -15
5 -15 11 0 11 -40 48 -52 49 -16 0 -7 -22 15 -42 l22 -19 -27 5 c-35 8 -36 -6
-2 -37 18 -17 22 -27 14 -32 -6 -4 -14 -4 -17 -1 -3 3 -12 1 -19 -5 -9 -8 -17
-4 -29 15 -9 14 -14 29 -11 35 3 5 1 11 -5 13 -6 2 -12 22 -12 44 -2 39 -2 39
31 36 32 -4 33 -3 21 16 -7 11 -17 18 -23 16 -19 -7 -78 35 -72 51 3 8 1 15
-4 15 -6 0 -10 -11 -10 -24 0 -13 -6 -27 -12 -29 -8 -3 -5 -6 5 -6 10 -1 16
-5 13 -10 -3 -5 1 -14 9 -21 17 -14 20 -30 5 -30 -6 0 -14 8 -17 18 -4 9 -17
25 -30 35 -14 11 -23 29 -23 45 0 15 -4 22 -8 17 -9 -13 -55 -17 -47 -5 3 6
-1 7 -9 4 -20 -8 -20 -18 -1 -34 8 -7 15 -22 15 -34 -1 -21 -1 -21 -20 3 -11
13 -20 19 -21 15 0 -5 -2 -19 -3 -31 -1 -12 1 -20 5 -18 4 3 12 -1 18 -9 7 -8
23 -17 36 -20 30 -8 31 -17 6 -40 -30 -27 -55 -17 -61 24 l-5 35 -27 -28 c-23
-25 -27 -26 -41 -12 -9 8 -19 15 -24 15 -5 0 -17 14 -27 31 -15 26 -16 35 -6
60 7 16 17 26 23 22 6 -4 8 3 4 18 -4 14 -3 38 1 53 7 27 9 25 32 -35 28 -70
45 -84 53 -42 2 15 10 42 16 58 6 17 13 42 16 58 3 15 12 27 20 27 8 0 15 5
15 10 0 14 17 12 27 -2z m-659 -11 c10 4 13 2 8 -5 -4 -8 0 -12 11 -12 11 0
28 -6 39 -14 18 -14 18 -15 -11 -47 -23 -25 -26 -30 -10 -24 11 4 26 8 33 8 6
0 12 3 12 7 0 8 80 5 100 -4 9 -3 16 -15 17 -25 1 -11 22 -39 46 -62 25 -24
47 -57 51 -74 5 -22 4 -26 -4 -15 -11 17 -13 10 -4 -14 4 -11 10 -13 18 -7 9
7 15 2 23 -19 9 -25 9 -30 -3 -30 -8 0 -14 -4 -14 -10 0 -5 -7 -10 -15 -10 -8
0 -15 -6 -15 -14 0 -20 -19 -31 -32 -18 -7 7 -18 7 -35 -1 -21 -9 -23 -15 -18
-49 6 -31 4 -38 -9 -38 -9 0 -16 -3 -16 -8 0 -12 40 -33 50 -27 20 12 9 -10
-17 -38 -23 -23 -24 -27 -8 -21 18 6 18 5 -2 -15 -13 -12 -23 -29 -23 -37 0
-11 6 -14 23 -9 19 6 18 3 -8 -18 -16 -14 -31 -21 -33 -16 -2 5 -9 9 -17 9 -7
0 -30 21 -51 46 -73 87 -78 91 -82 71 -2 -10 2 -24 8 -32 7 -8 10 -22 6 -30
-3 -9 1 -27 10 -40 20 -30 12 -55 -15 -50 -16 3 -22 -4 -30 -33 -6 -19 -8 -46
-5 -59 9 -35 -29 -31 -43 5 l-12 27 6 -29 c8 -42 -16 -29 -35 18 -14 36 -14
40 1 51 10 7 17 16 17 20 0 4 -6 2 -13 -4 -8 -6 -17 -8 -20 -4 -12 11 -8 23 8
23 8 0 15 7 15 16 0 9 -5 12 -12 8 -10 -6 -10 -4 0 7 6 7 12 22 12 33 0 13 -3
17 -8 9 -4 -6 -6 17 -5 50 1 67 8 76 36 52 10 -9 22 -13 27 -10 6 4 10 1 10
-4 0 -14 27 -14 35 -1 19 31 -73 113 -117 103 -18 -4 -33 5 -74 46 -30 30 -30
37 0 45 19 5 23 11 21 41 -1 24 4 39 14 45 9 5 12 10 8 10 -4 0 -3 9 3 21 9
16 8 24 -4 38 -9 10 -16 25 -16 33 0 9 -5 18 -10 20 -11 3 -23 48 -12 47 21
-3 23 3 8 20 -16 17 -16 19 0 25 11 4 25 -1 38 -13 20 -20 20 -20 45 7 19 21
23 22 17 7 -4 -11 -9 -26 -10 -34 -1 -7 -12 -19 -24 -25 -15 -8 -19 -15 -12
-26 7 -10 10 -11 10 -2 0 6 5 12 10 12 16 0 32 -51 32 -100 l-1 -45 15 33 c12
28 12 37 -1 69 -11 27 -12 39 -4 49 8 10 8 14 0 14 -6 0 -11 5 -11 11 0 8 5 7
16 -1 13 -11 19 -9 42 13 15 15 21 27 14 27 -6 0 -12 -5 -12 -11 0 -5 -5 -7
-11 -3 -8 4 -7 9 2 14 10 7 10 12 -1 27 -10 13 -10 15 -1 6 7 -6 20 -9 29 -6z
m445 -424 c4 -3 2 -12 -5 -20 -14 -18 -4 -28 19 -18 10 5 28 9 39 10 26 1 21
-21 -7 -30 -10 -4 -19 -11 -19 -16 0 -6 5 -7 12 -3 7 4 8 3 4 -4 -4 -7 -2 -20
3 -29 9 -16 10 -15 11 5 0 13 4 20 10 17 17 -11 8 -63 -12 -68 -13 -4 -18 -15
-18 -40 0 -44 17 -58 22 -20 l4 28 17 -37 c10 -21 22 -38 27 -38 6 0 10 -5 10
-11 0 -6 -7 -8 -16 -5 -13 5 -15 1 -12 -23 6 -38 -17 -31 -31 10 -6 18 -17 29
-28 29 -10 0 -24 12 -30 28 -7 15 -24 38 -38 52 -14 14 -33 33 -43 43 -9 9
-25 17 -35 17 -16 0 -14 5 11 30 17 17 35 30 41 30 6 0 11 5 11 10 0 14 30 60
39 60 4 0 11 -3 14 -7z m-933 -308 c0 -1 4 -25 10 -54 10 -55 5 -84 -14 -75
-6 3 1 -4 17 -16 19 -15 27 -31 27 -51 0 -27 -3 -30 -27 -27 -21 2 -33 14 -50
46 -13 24 -21 48 -18 52 3 5 1 11 -5 15 -6 4 -8 11 -4 16 3 5 0 16 -6 24 -10
12 -9 15 3 15 16 0 32 29 17 31 -9 1 -17 3 -37 8 -15 4 31 18 59 18 15 0 28
-1 28 -2z m1842 -295 c22 -11 45 -17 49 -14 5 3 6 -9 3 -26 -4 -19 -2 -30 4
-30 6 0 9 6 6 14 -9 23 64 19 76 -4 14 -26 12 -33 -6 -26 -11 4 -15 2 -12 -6
3 -7 11 -30 19 -50 10 -30 19 -38 39 -39 24 -1 24 -2 -4 -8 -16 -3 -31 -13
-34 -21 -3 -8 -1 -12 3 -8 4 4 16 3 27 -3 15 -8 18 -17 13 -37 -4 -20 0 -34
15 -49 21 -23 26 -43 12 -43 -5 0 -14 -11 -20 -24 -20 -45 -112 -38 -112 9 0
15 7 21 26 23 14 1 30 4 35 8 15 9 10 44 -6 44 -8 0 -15 6 -15 14 0 20 -27 27
-44 11 -12 -12 -16 -12 -25 -1 -6 7 -9 21 -5 30 3 9 1 16 -5 16 -6 0 -11 -4
-11 -10 0 -19 -19 -10 -26 13 -6 20 -8 20 -13 4 -6 -15 -12 -12 -46 23 -22 22
-65 57 -95 78 -75 51 -90 64 -90 79 0 21 31 15 37 -7 5 -19 6 -20 20 -3 8 10
12 13 9 7 -3 -6 10 -18 29 -27 18 -9 36 -25 40 -36 6 -19 33 -36 43 -27 2 3
-3 12 -12 21 -20 21 -21 35 -1 35 8 0 15 7 15 15 0 22 -15 18 -34 -7 -11 -14
-15 -17 -12 -7 3 12 0 15 -14 12 -15 -4 -19 0 -17 17 1 15 6 20 19 17 10 -3
18 -1 18 5 0 6 7 8 14 5 11 -4 13 -1 9 11 -6 15 -3 14 15 -2 12 -11 22 -14 22
-8 0 7 -4 12 -10 12 -5 0 -10 5 -10 10 0 15 16 12 62 -10z m-1440 -251 c13 -7
17 -14 10 -18 -7 -4 -8 -12 -2 -21 8 -12 13 -13 29 -3 25 16 38 -1 19 -24 -9
-12 -9 -15 0 -9 7 4 12 1 12 -8 0 -9 6 -16 13 -17 9 0 9 -2 -1 -6 -10 -4 -10
-8 -1 -19 9 -11 9 -21 0 -40 -10 -23 -9 -25 7 -19 24 7 54 -4 46 -17 -4 -6
-10 -5 -15 3 -7 11 -9 11 -9 1 0 -7 7 -15 15 -18 8 -4 12 -10 9 -15 -3 -5 0
-9 5 -9 6 0 11 8 12 18 0 14 2 14 8 -3 5 -11 6 -24 3 -29 -3 -5 0 -6 5 -3 6 4
13 0 17 -8 3 -9 0 -15 -9 -15 -9 0 -12 -6 -9 -15 4 -8 12 -15 20 -15 22 0 54
-38 54 -64 0 -13 7 -27 16 -30 9 -3 14 -12 11 -20 -3 -7 0 -19 6 -25 12 -12 3
-14 -30 -5 -17 5 -21 12 -17 28 4 17 -2 24 -28 35 -36 16 -68 47 -68 66 0 6
-12 17 -27 24 -21 9 -25 10 -16 1 6 -7 9 -19 6 -26 -7 -19 -65 6 -113 50 -21
19 -49 40 -61 47 -13 7 -32 23 -43 37 -11 14 -34 38 -52 54 -40 37 -51 95 -30
153 10 28 15 33 15 18 1 -27 19 -39 34 -24 16 16 37 14 37 -4 0 -9 -9 -15 -22
-15 -19 0 -20 -2 -6 -17 9 -10 13 -24 11 -30 -3 -7 3 -13 11 -13 10 0 19 -12
23 -30 3 -16 9 -30 14 -30 4 0 11 -10 14 -22 4 -13 18 -35 32 -50 14 -14 25
-30 25 -35 0 -11 28 -50 28 -39 0 5 -7 18 -17 28 -15 17 -15 18 14 18 16 0 33
3 36 6 7 7 -25 57 -60 92 -13 13 -23 29 -23 36 0 7 -11 22 -25 34 -31 27 -31
35 -2 47 17 8 22 18 20 45 l-1 35 14 -27 c8 -15 24 -33 36 -39z m972 -34 c8
-8 24 -15 37 -15 19 0 20 2 8 16 -12 15 -10 16 21 10 47 -10 84 -55 104 -126
10 -36 26 -66 40 -77 18 -15 20 -21 11 -30 -7 -7 -16 -8 -21 -3 -5 5 -9 -10
-9 -36 0 -44 1 -44 17 -25 16 21 34 29 23 11 -3 -5 -1 -19 6 -31 6 -12 7 -19
1 -15 -5 3 -24 3 -41 0 -25 -5 -30 -11 -26 -25 5 -15 -2 -20 -39 -30 -25 -6
-46 -15 -46 -20 0 -5 -20 -8 -45 -7 -25 2 -45 6 -45 11 0 4 -7 7 -15 7 -8 0
-15 5 -15 10 0 5 -3 9 -7 8 -18 -5 -150 89 -185 131 -24 28 -20 63 7 55 11 -4
26 -11 33 -17 20 -16 25 0 8 25 -19 27 -21 44 -3 32 7 -5 4 -1 -6 9 -20 18
-18 24 21 65 6 7 12 18 12 23 0 12 84 49 132 58 4 0 13 -6 22 -14z m-658 -69
c7 -19 101 -59 144 -60 29 -2 34 -6 35 -27 1 -13 10 -37 19 -52 10 -15 14 -27
8 -27 -6 0 -14 5 -17 10 -3 6 -14 10 -24 10 -10 0 -32 7 -50 16 -30 15 -91 12
-91 -5 0 -11 -43 -11 -57 0 -10 9 -9 14 3 26 14 14 13 18 -10 37 -14 12 -26
32 -28 46 -2 14 -8 25 -15 25 -6 0 -15 3 -19 8 -4 4 16 7 45 7 35 0 53 -4 57
-14z m-513 -131 c22 -19 44 -35 49 -35 4 0 8 -7 8 -15 0 -18 21 -20 37 -4 8 8
14 5 22 -10 7 -12 21 -21 32 -21 11 0 18 -4 15 -9 -3 -5 7 -11 22 -14 15 -3
46 -23 69 -45 23 -22 55 -42 70 -45 39 -8 143 -117 143 -150 0 -14 -4 -27 -9
-29 -6 -2 -5 -22 1 -50 6 -27 8 -51 4 -55 -8 -9 -50 37 -81 89 -19 31 -105 98
-127 98 -5 0 4 -17 20 -37 42 -54 102 -179 102 -213 0 -15 -13 -54 -30 -85
-16 -31 -30 -66 -30 -76 0 -10 -6 -19 -14 -19 -15 0 -31 40 -41 106 -6 42 -28
73 -105 154 -45 47 -87 76 -97 67 -2 -3 14 -23 38 -45 32 -31 43 -49 46 -78 5
-47 8 -51 29 -30 23 24 49 3 31 -25 -14 -22 -23 -24 -30 -6 -2 6 -8 0 -12 -15
-10 -39 -39 -38 -30 1 5 23 2 32 -15 44 -12 8 -33 14 -46 12 -18 -2 -24 3 -24
16 0 11 -4 19 -10 19 -5 0 -10 8 -10 18 0 10 -11 29 -25 42 -14 13 -25 29 -25
35 0 6 -10 21 -22 33 -47 45 -60 61 -54 70 3 5 -1 16 -10 23 -11 9 -18 9 -22
2 -10 -16 -76 8 -80 30 -2 10 3 17 12 17 9 0 16 4 16 9 0 5 7 12 16 15 12 5
14 1 10 -17 -3 -12 -3 -16 0 -9 4 9 20 -2 50 -33 24 -25 47 -45 51 -45 4 0 2
5 -5 12 -21 21 -13 28 31 28 23 0 53 7 66 16 12 9 37 18 54 19 18 2 35 3 40 4
4 1 7 8 7 15 0 13 -9 12 -53 -3 -55 -19 -111 -17 -104 3 2 6 15 10 28 8 19 -2
21 0 9 8 -8 5 -25 10 -37 10 -12 0 -29 7 -37 16 -17 16 -20 12 -16 -19 2 -27
-30 -49 -47 -31 -7 7 -13 19 -13 27 0 19 -31 18 -53 -2 -18 -15 -18 -14 -6 12
7 15 17 27 23 27 6 0 0 10 -14 21 l-25 20 25 -6 c14 -4 20 -3 13 2 -15 11 -10
99 6 96 6 -2 16 -4 23 -5 6 -2 22 -14 35 -28 21 -21 22 -22 12 -3 -11 17 -10
25 2 39 13 16 12 17 -5 11 -16 -6 -17 -5 -7 7 9 11 9 16 0 21 -8 6 -7 10 2 16
27 17 62 8 102 -26z m-382 -369 c5 3 9 1 9 -5 0 -5 -8 -15 -17 -21 -16 -9 -15
-10 4 -5 18 5 22 3 17 -10 -8 -20 23 -55 48 -55 10 0 18 -6 18 -14 0 -7 14
-19 30 -26 17 -7 39 -23 49 -36 12 -15 25 -22 35 -18 9 3 16 2 16 -3 0 -17
103 -76 133 -76 15 0 27 -4 27 -9 0 -4 5 -8 11 -8 18 0 59 -49 59 -71 0 -10 5
-19 12 -19 9 0 9 -3 1 -11 -6 -6 -30 -12 -54 -13 -34 -1 -44 -5 -43 -18 2 -17
-36 -22 -47 -5 -3 4 -22 9 -42 10 -20 1 -37 5 -37 9 0 4 -22 19 -50 35 -27 15
-50 34 -50 41 0 7 -7 15 -15 18 -8 4 -12 10 -9 15 3 5 -3 6 -12 2 -11 -4 -15
-3 -10 5 3 6 -3 13 -14 17 -11 3 -20 11 -20 17 0 18 -33 37 -62 38 -18 0 -28
5 -28 14 0 8 -9 18 -21 21 -17 6 -18 9 -6 18 20 16 27 43 16 54 -10 10 -2 43
11 43 4 0 10 -9 13 -20 3 -11 10 -20 17 -20 6 0 10 3 8 8 -2 4 -13 24 -23 44
-16 32 -17 39 -5 53 9 11 16 13 18 6 2 -6 8 -9 13 -5z m870 -726 c17 0 9 -20
-8 -21 -12 -1 -10 -3 6 -8 14 -4 27 -13 29 -20 3 -9 -1 -12 -9 -9 -46 17 -57
17 -79 0 -13 -10 -24 -29 -25 -42 -1 -15 -14 -30 -41 -45 -36 -20 -60 -65 -35
-65 19 0 12 -40 -6 -41 -14 0 -13 -3 5 -11 27 -14 29 -28 2 -28 -31 0 -23 -17
11 -24 26 -5 30 -9 25 -29 -4 -19 1 -25 34 -40 26 -11 40 -24 40 -35 0 -10 4
-22 9 -28 4 -5 17 -36 28 -69 l20 -60 -28 0 c-16 0 -29 5 -29 12 0 37 -65 26
-68 -11 -2 -34 32 -54 56 -33 9 8 29 15 45 15 36 -1 46 -35 21 -77 -21 -35
-34 -40 -34 -13 0 28 -20 43 -42 31 -15 -8 -22 -7 -32 7 -7 9 -18 14 -25 10
-7 -5 -15 4 -22 23 -6 17 -18 31 -26 31 -8 0 -13 -3 -11 -7 32 -63 58 -128 55
-138 -3 -6 -32 -24 -66 -40 -34 -16 -61 -33 -61 -37 0 -4 -15 -8 -34 -8 -19 0
-36 -5 -38 -12 -2 -6 -13 -13 -24 -14 -10 -1 -38 -8 -61 -14 -57 -16 -83 -8
-112 37 -18 29 -21 40 -13 54 15 23 -6 40 -54 43 -22 2 -40 10 -46 20 -5 9
-14 13 -20 10 -7 -4 -8 -2 -4 5 4 6 -1 19 -12 29 -23 21 -46 72 -32 72 6 0 10
-5 10 -12 0 -6 14 -24 32 -39 28 -26 32 -27 43 -12 11 15 14 14 34 -6 l22 -22
-7 26 c-12 49 47 41 65 -9 7 -19 71 -35 71 -18 0 14 -43 48 -77 62 -38 14 -41
25 -13 40 11 6 20 15 20 20 0 14 -34 12 -48 -2 -14 -14 -46 8 -35 25 3 6 1 7
-5 3 -7 -4 -12 -14 -12 -22 0 -23 -23 -11 -25 12 -1 10 -5 29 -9 40 -6 19 -2
23 28 28 28 5 33 10 29 26 -3 11 0 27 7 35 14 17 11 23 -22 39 -16 8 -23 21
-25 45 -1 18 -4 35 -7 39 -3 3 1 14 11 24 19 22 77 24 113 4 14 -7 45 -24 70
-37 25 -12 51 -31 58 -40 7 -10 30 -28 52 -40 21 -12 37 -26 34 -30 -3 -5 4
-19 15 -31 l21 -22 0 22 c0 37 -51 132 -79 147 -36 18 -74 61 -66 74 3 6 19
11 36 11 19 0 29 5 29 15 0 9 11 20 24 25 26 10 40 47 30 85 -5 21 -3 25 16
25 17 0 21 4 17 20 -6 25 -2 25 31 0 23 -18 27 -19 34 -5 10 17 48 21 48 4 0
-7 10 -9 26 -5 27 7 26 -1 -3 -36 -11 -12 -12 -18 -2 -24 7 -4 10 -3 6 3 -4 5
4 19 16 31 12 11 30 32 40 47 12 16 25 24 34 21 8 -3 19 -6 24 -6z m38 -90 c7
0 9 -5 6 -11 -4 -6 -13 -8 -21 -5 -10 4 -14 0 -12 -12 2 -9 6 -19 10 -22 4 -3
2 -17 -6 -31 -16 -31 -26 -70 -17 -65 4 3 18 29 31 58 13 29 25 55 27 57 4 6
33 -21 33 -31 0 -6 -6 -8 -14 -5 -9 4 -24 -16 -45 -59 -17 -36 -35 -62 -40
-60 -5 3 -14 0 -20 -8 -9 -11 -9 -15 1 -19 7 -3 1 -6 -14 -6 -15 -1 -30 4 -33
9 -4 7 -13 7 -25 0 -16 -9 -18 -8 -14 5 4 8 2 21 -4 28 -5 6 -12 23 -14 37 -2
19 2 26 19 28 12 2 25 13 29 25 4 12 10 24 13 27 3 3 19 25 34 48 26 41 30 43
46 28 10 -9 23 -16 30 -16z"/>
<path d="M1212 4008 c-7 -7 -12 -22 -12 -35 0 -13 -4 -23 -10 -23 -10 0 -7
-71 5 -90 5 -9 1 -10 -14 -5 -15 4 -21 2 -21 -9 0 -20 -30 -48 -46 -42 -14 5
-89 -13 -81 -20 2 -2 37 -14 77 -25 84 -23 136 -48 203 -96 47 -35 137 -141
137 -162 0 -7 11 -16 24 -21 13 -5 39 -21 57 -37 31 -26 99 -63 116 -63 11 0
-60 70 -71 70 -24 1 -69 48 -62 65 5 15 9 14 37 -6 46 -33 55 -11 14 36 -19
22 -35 43 -35 48 0 4 -5 7 -10 7 -7 0 -7 -6 0 -20 6 -12 7 -20 1 -20 -17 0
-39 29 -46 59 -6 29 -50 79 -60 69 -3 -3 1 -24 9 -47 12 -35 12 -40 0 -30 -8
6 -14 8 -14 3 -1 -17 -30 59 -30 78 0 10 -4 17 -9 14 -5 -3 -7 -16 -4 -29 2
-12 -9 2 -26 32 -30 52 -30 55 -17 95 8 23 20 40 26 38 14 -3 -2 29 -23 47 -8
6 -20 25 -27 41 -7 16 -17 28 -23 27 -6 -1 -13 8 -15 21 -4 28 -34 46 -50 30z"/>
<path d="M930 3637 c0 -22 -44 -57 -72 -57 -15 0 -38 -4 -52 -10 -20 -7 -24
-6 -20 5 9 23 -34 6 -67 -27 -16 -16 -29 -39 -29 -50 0 -21 96 -138 114 -138
27 1 37 16 27 43 -8 20 -7 27 2 28 54 2 81 9 99 25 21 19 21 19 9 -3 -6 -12
-16 -25 -21 -28 -13 -8 -13 -72 -1 -80 11 -6 28 46 37 112 8 52 -5 193 -17
193 -5 0 -9 -6 -9 -13z"/>
<path d="M1132 3561 c-15 -13 -18 -21 -10 -24 7 -3 -3 -12 -24 -21 -36 -15
-98 -80 -98 -102 0 -6 -9 -19 -20 -29 -23 -20 -28 -85 -7 -85 28 0 38 16 28
43 -8 21 -6 30 10 49 l20 23 15 -22 c19 -27 36 -30 32 -5 -3 21 40 82 59 82
18 0 16 -10 -7 -35 -25 -27 -15 -68 17 -70 14 -1 19 3 16 12 -3 7 -11 13 -19
13 -8 0 -14 4 -14 9 0 15 18 23 25 11 4 -6 11 -8 16 -5 15 10 10 -38 -6 -59
-21 -28 -19 -63 6 -98 18 -25 19 -32 8 -39 -21 -13 -39 -11 -55 6 -21 20 -40
20 -23 -1 11 -13 9 -14 -17 -9 -28 6 -28 6 -9 -10 15 -13 32 -15 70 -11 68 8
136 28 112 34 -35 8 -2 112 35 112 5 0 13 -10 18 -22 5 -13 9 -17 9 -10 1 16
-18 55 -32 64 -6 3 -11 28 -11 55 -1 49 -18 67 -22 24 -4 -29 -9 -35 -29 -28
-12 5 -14 19 -11 64 3 48 0 62 -17 81 -25 27 -35 27 -65 3z"/>
<path d="M547 3273 c-9 -48 9 -176 32 -223 12 -25 24 -61 27 -81 5 -27 18 -46
56 -79 61 -52 73 -48 106 36 13 32 40 92 60 132 19 39 32 75 28 79 -4 4 -19 0
-34 -9 -22 -14 -27 -24 -28 -60 -1 -59 -2 -62 -21 -84 -12 -13 -31 -19 -58
-19 -36 0 -40 3 -43 26 -2 19 6 34 32 57 20 17 36 33 36 35 0 10 -43 -1 -50
-13 -12 -20 -20 -9 -14 18 4 12 15 24 25 27 10 4 19 11 19 16 0 12 -27 12 -35
-1 -9 -15 -45 -12 -45 3 0 17 35 50 56 53 22 3 31 14 11 14 -30 0 -31 23 -1
47 27 21 27 23 8 23 -12 0 -32 -13 -45 -29 l-23 -29 -41 44 c-22 24 -43 44
-46 44 -4 0 -9 -12 -12 -27z"/>
<path d="M930 3140 c-1 -24 -1 -24 -15 -6 -24 32 -34 7 -23 -54 6 -30 11 -98
12 -150 1 -52 6 -101 10 -109 6 -10 22 -12 55 -7 116 15 152 24 172 42 90 80
123 114 117 120 -4 4 -25 -9 -47 -29 -44 -40 -86 -56 -103 -39 -14 14 13 58
41 67 20 6 33 36 22 53 -4 6 -12 -2 -20 -19 -7 -17 -20 -29 -31 -29 -25 0 -40
-29 -29 -55 20 -50 -11 -34 -38 19 -18 34 -43 57 -55 50 -5 -3 -5 -23 -2 -45
7 -41 -4 -51 -26 -24 -7 9 -11 48 -11 108 1 67 -3 99 -14 113 -14 18 -14 18
-15 -6z"/>
<path d="M4357 2637 c-16 -11 -15 -17 9 -77 41 -106 43 -110 55 -110 9 0 9 3
0 14 -9 10 -8 16 4 26 8 7 15 9 15 4 0 -4 7 1 16 12 8 10 12 12 8 4 -7 -13 -5
-13 9 -1 9 7 14 17 11 22 -3 5 -1 9 5 9 5 0 11 -4 13 -10 5 -14 82 15 86 32 4
18 -52 43 -133 59 -33 7 -65 16 -71 20 -6 5 -18 3 -27 -4z"/>
<path d="M1131 2409 c-37 -30 -36 -86 2 -80 4 0 7 -6 7 -14 0 -10 10 -15 30
-15 17 0 45 -7 61 -16 26 -13 30 -19 24 -42 l-6 -26 18 23 18 22 63 -27 c44
-19 62 -32 62 -45 0 -13 7 -19 21 -19 16 0 19 4 14 23 -11 33 -50 82 -101 124
-45 38 -83 48 -116 31 -26 -13 -58 11 -58 44 0 36 -10 40 -39 17z"/>
<path d="M930 2250 c-18 -4 -26 -14 -28 -33 -2 -16 -9 -27 -18 -27 -8 0 -14
-6 -13 -12 4 -33 -3 -57 -23 -81 -63 -71 -88 -108 -88 -129 0 -13 -6 -30 -12
-37 -11 -10 -9 -11 7 -5 15 6 13 1 -9 -20 -18 -17 -26 -34 -23 -46 3 -10 0
-21 -7 -24 -6 -3 1 -4 16 -3 30 3 51 17 25 17 -10 0 -17 7 -17 15 0 17 16 20
25 5 3 -5 15 0 27 12 16 16 17 22 7 28 -7 5 -13 25 -14 45 -2 31 1 36 17 32
15 -4 18 -1 12 16 -6 22 -6 22 9 2 17 -21 19 -2 3 23 -4 7 -4 12 1 11 29 -5
43 3 43 24 0 25 28 57 49 57 9 0 9 -5 1 -21 -7 -11 -9 -23 -6 -26 3 -4 1 -12
-4 -18 -7 -9 -6 -14 4 -18 12 -5 13 -13 5 -43 -12 -40 3 -74 16 -36 3 12 12
19 20 16 27 -11 22 100 -6 116 -6 4 -9 12 -5 18 7 12 46 12 46 0 0 -4 6 -8 13
-8 8 0 24 -9 37 -20 13 -11 27 -20 32 -20 13 0 10 18 -4 23 -10 4 -10 6 0 6 7
1 51 -21 98 -49 47 -27 87 -50 89 -50 16 0 0 34 -27 60 -52 50 -149 90 -219
90 l-59 0 0 35 c0 19 6 38 14 42 24 13 -4 40 -34 33z"/>
<path d="M1080 1887 c34 -15 33 -14 25 -27 -5 -8 -10 -8 -20 0 -7 6 -16 7 -19
2 -3 -4 4 -15 15 -22 21 -16 26 -50 7 -50 -9 0 -8 -4 2 -10 14 -9 11 -12 -19
-14 -8 -1 -16 -6 -18 -13 -3 -7 3 -9 15 -6 16 4 21 -2 27 -26 3 -17 10 -30 13
-30 18 3 32 -2 47 -17 12 -13 19 -14 28 -5 6 6 17 11 24 11 7 0 23 10 34 21
16 16 18 23 9 29 -7 4 -10 12 -7 17 3 5 -4 20 -15 33 -13 16 -18 19 -14 8 10
-31 -15 -19 -25 12 -9 25 -16 30 -45 30 -35 0 -42 8 -23 27 20 20 2 43 -33 42
-33 0 -33 0 -8 -12z"/>
<path d="M3293 1395 c-27 -12 -33 -20 -33 -45 0 -33 49 -133 79 -161 10 -9 28
-20 41 -24 20 -6 22 -4 17 14 -3 14 0 21 9 21 8 0 15 6 15 13 1 6 2 19 3 27 0
8 8 16 17 18 20 4 33 -49 16 -60 -8 -5 -4 -8 9 -8 11 0 29 7 40 15 24 18 47
19 41 3 -2 -7 -11 -12 -20 -12 -9 1 -18 -5 -21 -13 -3 -8 -1 -11 4 -8 6 3 10
-3 10 -14 0 -12 -11 -25 -27 -33 -35 -17 -40 -61 -7 -66 24 -4 41 14 48 50 2
14 10 35 17 46 11 17 11 33 0 86 -10 51 -11 70 -1 81 24 28 8 57 -40 71 -58
18 -176 17 -217 -1z"/>
<path d="M756 1305 c3 -12 6 -38 7 -58 1 -20 6 -37 10 -37 5 0 6 -4 3 -9 -15
-24 84 -17 135 9 14 8 25 4 50 -19 29 -27 30 -30 13 -39 -11 -5 -31 -12 -46
-16 -22 -5 -28 -12 -28 -34 0 -15 6 -40 13 -56 12 -27 13 -27 75 -21 61 6 68
3 63 -27 -2 -12 27 -9 34 3 4 5 -10 25 -30 42 l-38 33 17 31 c9 18 21 35 26
38 11 7 70 125 62 125 -2 0 -13 -11 -24 -25 -14 -18 -26 -23 -46 -21 -30 5
-95 37 -122 61 -10 9 -39 18 -65 20 l-48 4 22 -23 c28 -30 29 -69 0 -64 -21 3
-53 71 -45 94 3 7 -5 11 -19 10 -19 -1 -23 -5 -19 -21z"/>
<path d="M3112 1208 c-7 -7 -12 -19 -12 -29 0 -9 -10 -29 -21 -44 l-22 -27 42
-40 c22 -22 41 -48 41 -58 0 -10 7 -34 15 -53 l15 -36 31 16 c22 11 34 12 42
4 7 -7 15 -7 22 -1 7 6 39 18 71 29 33 10 59 24 59 32 0 18 -73 33 -91 18 -19
-15 -44 -4 -44 20 0 22 22 33 46 24 14 -5 16 -2 10 20 -4 18 -2 29 9 34 25 14
-9 51 -53 59 -20 3 -49 14 -64 25 -31 21 -78 25 -96 7z"/>
<path d="M3728 1181 c-16 -17 -41 -31 -64 -35 -35 -7 -114 -67 -114 -87 0 -20
33 -16 52 6 27 31 53 33 45 5 -3 -11 -1 -23 4 -26 21 -12 7 -24 -29 -24 -25 0
-45 -7 -56 -19 -16 -18 -15 -20 14 -45 17 -14 35 -26 39 -26 4 0 28 -20 53
-45 50 -49 58 -53 58 -30 0 8 7 15 15 15 8 0 15 -4 15 -10 0 -5 5 -10 11 -10
6 0 1 14 -11 30 -16 22 -20 38 -15 60 6 27 11 30 45 30 54 0 66 39 32 108 -10
20 -19 52 -21 71 -3 65 -33 78 -73 32z"/>
<path d="M545 1008 c-12 -41 -13 -43 -14 -25 -1 9 -6 17 -12 17 -5 0 -7 -4 -4
-10 4 -6 -6 -10 -23 -10 -25 0 -36 -10 -81 -76 -28 -42 -51 -82 -51 -89 0 -7
-3 -21 -7 -31 -5 -15 0 -14 35 6 64 36 104 77 97 99 -4 14 0 20 19 25 13 3 38
22 55 42 25 28 30 39 20 50 -14 17 -28 18 -34 2z"/>
<path d="M1107 991 c-4 -18 -11 -20 -53 -15 -41 5 -54 2 -76 -16 -31 -24 -40
-80 -13 -80 8 0 15 -5 15 -12 0 -6 9 -1 20 12 11 13 20 28 20 34 0 6 4 5 9 -3
6 -8 11 -10 15 -3 4 7 36 9 84 7 72 -4 79 -7 105 -37 15 -18 27 -35 27 -38 0
-10 -55 -8 -67 2 -9 7 -13 7 -13 -1 0 -6 5 -11 10 -11 6 0 10 -7 10 -15 0 -8
5 -15 10 -15 7 0 7 -6 0 -19 -5 -11 -10 -29 -10 -41 0 -17 -4 -20 -22 -15
l-23 6 24 -20 c32 -29 45 -26 68 16 10 17 10 23 0 27 -9 3 -8 7 3 15 19 14 50
14 50 0 0 -5 4 -8 8 -5 16 10 50 -24 72 -70 15 -30 19 -48 12 -53 -10 -6 -16
-32 -13 -58 0 -7 8 -13 18 -13 9 0 14 3 10 6 -12 13 19 31 56 32 34 1 38 -1
44 -28 3 -17 11 -30 18 -30 8 0 15 -6 18 -12 4 -10 7 -10 18 0 7 6 21 12 30
12 18 0 29 19 29 51 0 10 4 19 9 19 14 0 0 41 -15 47 -8 3 -14 11 -14 19 0 8
-6 14 -13 14 -8 0 -22 9 -32 20 -16 18 -20 19 -35 5 -15 -14 -18 -13 -30 10
-8 16 -41 39 -79 59 -86 42 -141 76 -141 86 0 5 -9 12 -21 15 -13 4 -18 12
-15 22 4 10 2 13 -8 10 -8 -3 -17 1 -20 9 -4 10 -2 13 7 8 6 -4 3 2 -7 14 -11
12 -28 22 -39 22 -11 0 -28 7 -37 15 -16 14 -18 14 -23 -4z"/>
<path d="M3441 976 c-26 -14 -50 -51 -51 -77 0 -9 -7 -22 -15 -29 -8 -7 -15
-29 -15 -50 0 -34 4 -39 33 -50 55 -21 97 -21 104 -2 13 37 25 44 44 26 18
-16 19 -16 19 0 0 24 -49 98 -61 91 -5 -4 -17 -1 -25 6 -11 9 -18 9 -26 1 -17
-17 -28 -15 -28 7 0 28 26 44 60 37 32 -6 37 2 20 35 -12 22 -26 23 -59 5z"/>
</g>
</svg>
