<?xml version="1.0" encoding="UTF-8"?>
<svg version="1.1" xmlns="http://www.w3.org/2000/svg" width="1080" height="1080">
<path d="M0 0 C356.4 0 712.8 0 1080 0 C1080 356.4 1080 712.8 1080 1080 C723.6 1080 367.2 1080 0 1080 C0 723.6 0 367.2 0 0 Z " fill="#FEFEFE" transform="translate(0,0)"/>
<path d="M0 0 C1.01707031 0.52980469 2.03414063 1.05960938 3.08203125 1.60546875 C16.73955643 9.47115698 25.80276839 22.99540391 30 38 C30.63019117 41.21510705 31.15911064 44.41858015 31.60546875 47.6640625 C31.76006155 49.95321894 31.76006155 49.95321894 33 51 C33.14695312 50.07960938 33.29390625 49.15921875 33.4453125 48.2109375 C35.79494878 34.95034653 39.75753933 23.16867741 49 13 C49.59425781 12.31421875 50.18851563 11.6284375 50.80078125 10.921875 C60.63531324 0.25252767 73.80079974 -5.74096863 88.18359375 -6.34375 C90.47631353 -6.38977474 92.76937882 -6.42084099 95.0625 -6.4375 C96.15062988 -6.44773193 97.23875977 -6.45796387 98.35986328 -6.46850586 C115.78728595 -6.28059141 129.76451373 -0.3892536 142 12 C142.56332031 12.54140625 143.12664062 13.0828125 143.70703125 13.640625 C157.47489099 28.02604046 159.43212556 48.75431917 159.21484375 67.6015625 C159.04462122 73.75283398 158.07119591 79.20231506 156 85 C155.64808594 86.07378906 155.29617188 87.14757812 154.93359375 88.25390625 C149.68158771 103.21259013 140.12089778 114.80563212 126.203125 122.49609375 C120.97656959 124.95002525 115.5796615 126.55858745 110 128 C109.36940674 128.1750708 108.73881348 128.3501416 108.08911133 128.53051758 C93.05414073 131.90930085 75.62192764 128.48323135 62.55859375 120.7578125 C44.55372904 108.38805812 37.22187375 91.73685047 33 71 C32.63648438 72.55847656 32.63648438 72.55847656 32.265625 74.1484375 C28.21399012 91.18823393 22.14551473 107.6695333 7 118 C-8.67541143 127.40871871 -25.69060472 131.89281542 -43.9375 128.25 C-45.30140296 127.86640229 -46.65588668 127.44803777 -48 127 C-48.86625 126.731875 -49.7325 126.46375 -50.625 126.1875 C-67.29192301 120.631859 -78.62139344 110.4564847 -86.75 95 C-95.58319981 76.49095961 -95.92557033 51.67030528 -89.17089844 32.44921875 C-82.84259247 15.62991288 -71.70300121 5.32992158 -55.90234375 -2.30078125 C-39.16761068 -9.79224473 -16.10495207 -8.76156017 0 0 Z " fill="#010101" transform="translate(431,531)"/>
<path d="M0 0 C79.5095057 0 79.5095057 0 99.24609375 18.0546875 C112.45984521 31.70632156 117.62540123 49.78902338 117.4050293 68.36157227 C116.79471358 87.62257332 109.43724744 104.53562364 95.5078125 117.8984375 C68.90840065 140.18891036 32.13344739 132 0 132 C0 88.44 0 44.88 0 0 Z " fill="#010101" transform="translate(723,526)"/>
<path d="M0 0 C1.18916016 -0.00773438 2.37832031 -0.01546875 3.60351562 -0.0234375 C19.62543519 0.012147 34.34207469 5.43254833 46.1875 16.4375 C59.97316783 30.98903826 65.14130997 50.72805857 65.05224609 70.31787109 C64.4166032 88.52533524 57.394231 106.71466023 44.45703125 119.62109375 C29.98551735 132.76458748 12.90334414 136.34573789 -6.08496094 135.43652344 C-21.81114681 134.18965689 -35.36088035 126.49803556 -46.02734375 115.1875 C-60.20677096 97.90560493 -63.13169008 76.89480916 -61.4375 55.25 C-59.47844756 39.08695357 -51.75775054 22.7095042 -39.09765625 12.33203125 C-26.77767023 3.20395314 -15.09740869 -0.09787623 0 0 Z " fill="#010101" transform="translate(652.4375,524.75)"/>
<path d="M0 0 C12.54 0 25.08 0 38 0 C48.80722256 13.38701117 48.80722256 13.38701117 51.31640625 19.68359375 C54.78649947 27.91268978 59.19730593 35.38485378 63.85952759 42.98657227 C65.48111365 45.64668199 67.06186133 48.32977745 68.64183044 51.01473999 C72.61887703 57.76947116 76.73609969 64.42143535 81 71 C80.89171875 69.07607422 80.89171875 69.07607422 80.78125 67.11328125 C79.6724741 45.0859953 79.91353751 23.04793556 80 1 C90.56 1 101.12 1 112 1 C112 44.23 112 87.46 112 132 C101.11 132 90.22 132 79 132 C70.57161949 122.10884271 70.57161949 122.10884271 68.76171875 117.34375 C65.81823388 110.28204109 61.85308117 104.06193957 57.75 97.625 C56.38369897 95.40890878 55.02158009 93.19023257 53.6640625 90.96875 C51.56506355 87.54547158 49.45936159 84.12692084 47.3359375 80.71875 C41.21532928 70.81596325 36.07774181 60.46734493 31 50 C31.16265854 50.83205963 31.32531708 51.66411926 31.49290466 52.52139282 C32.03779107 56.25924176 32.13317391 59.8918045 32.11352539 63.65771484 C32.11367142 64.39986237 32.11381744 65.14200989 32.1139679 65.90664673 C32.11327539 68.34144083 32.10551419 70.77615689 32.09765625 73.2109375 C32.09578972 74.90630044 32.09436692 76.60166392 32.09336853 78.29702759 C32.08956189 82.74560044 32.07974751 87.19414032 32.06866455 91.6427002 C32.05841051 96.18757684 32.05386237 100.73245885 32.04882812 105.27734375 C32.0381235 114.1849126 32.02054179 123.09244839 32 132 C21.44 132 10.88 132 0 132 C0 88.44 0 44.88 0 0 Z " fill="#000000" transform="translate(348,334)"/>
<path d="M0 0 C6.62254587 5.2682166 12.08412615 12.68510751 14 21 C10.31280614 22.12600501 6.62519046 23.25062251 2.9375 24.375 C1.89916016 24.69210937 0.86082031 25.00921875 -0.20898438 25.3359375 C-2.23249624 25.95262683 -4.25673038 26.56695199 -6.28173828 27.17871094 C-7.91198706 27.67127038 -9.54101282 28.16794676 -11.16748047 28.67285156 C-14.32828354 29.62995455 -16.63591971 30 -20 30 C-21.68195879 28.1463229 -22.89823468 26.15105474 -24.2421875 24.04296875 C-27.54146709 20.2084727 -30.95737629 19.11561562 -35.91015625 18.56640625 C-37.29416638 18.5493521 -38.6784578 18.54828481 -40.0625 18.5625 C-40.75666016 18.54251953 -41.45082031 18.52253906 -42.16601562 18.50195312 C-45.77185164 18.50537747 -47.88382032 18.92983659 -50.98828125 20.8046875 C-53.38398535 22.94204925 -53.38398535 22.94204925 -53.125 26.5625 C-52.34281405 30.06275871 -52.34281405 30.06275871 -49.85546875 31.61181641 C-46.63504672 33.17742171 -43.69415818 33.92421571 -40.1875 34.6484375 C-38.85025704 34.93488008 -37.51301758 35.22133896 -36.17578125 35.5078125 C-34.10135455 35.94049114 -32.02622973 36.36960031 -29.95068359 36.796875 C-13.48169201 40.21489295 1.72682832 44.65232695 12.52734375 58.3984375 C18.10723487 68.25575179 19.33376689 81.2054887 16.42871094 92.15283203 C12.02481075 104.27703888 3.8465017 111.76438886 -7.46191406 117.26513672 C-26.24790638 125.75948632 -48.60212852 127.24036831 -68 120 C-81.865271 114.49073169 -92.56812668 104.78139399 -98.9375 91.1875 C-99.94743777 88.1576867 -100.09062103 86.13975231 -100 83 C-95.39403213 82.11524858 -90.78596015 81.24282672 -86.17553711 80.3815918 C-84.6084969 80.0870938 -83.04207659 79.78927662 -81.47631836 79.48803711 C-79.22145118 79.05482192 -76.9646008 78.6337178 -74.70703125 78.21484375 C-74.01100296 78.07843979 -73.31497467 77.94203583 -72.59785461 77.80149841 C-68.79938735 77.1100385 -65.70498762 76.79145593 -62 78 C-60.91796875 79.671875 -60.91796875 79.671875 -60.1875 81.75 C-58.02819058 86.67924323 -54.75526586 88.72489334 -50 91 C-46.43450163 92.18849946 -43.50898083 92.16877998 -39.75 92.1875 C-38.46609375 92.20167969 -37.1821875 92.21585937 -35.859375 92.23046875 C-31.85171124 91.9911447 -28.789548 91.24191146 -25 90 C-24.91868537 88.56344146 -24.86066441 87.1255517 -24.8125 85.6875 C-24.77769531 84.88699219 -24.74289062 84.08648437 -24.70703125 83.26171875 C-24.81911593 80.95508717 -24.81911593 80.95508717 -26.26171875 79.296875 C-31.35849825 75.49433389 -38.56750397 74.86762273 -44.68188477 73.67041016 C-60.61188214 70.5216608 -77.15875907 66.19099074 -87.75390625 52.89453125 C-94.00167224 43.39557669 -95.56606117 32.99987933 -93.38671875 21.8671875 C-90.22656307 11.20340226 -84.17569627 2.53781244 -74.78515625 -3.5 C-52.38616935 -15.56340949 -20.89131848 -15.10061611 0 0 Z " fill="#020202" transform="translate(566,344)"/>
<path d="M0 0 C14.19 0 28.38 0 43 0 C44.0725 3.196875 45.145 6.39375 46.25 9.6875 C46.5790332 10.66549561 46.90806641 11.64349121 47.24707031 12.65112305 C49.20735924 18.5141376 51.06027093 24.40345363 52.86621094 30.31567383 C54.18217248 34.5919821 55.52576552 38.8590954 56.875 43.125 C57.12860291 43.92698318 57.38220581 44.72896637 57.64349365 45.55525208 C58.42862249 48.03695304 59.21422512 50.51850352 60 53 C63.09420107 62.77156339 66.18377196 72.54347199 69.18603516 82.34375 C70.17362024 85.56658313 71.17856899 88.78379082 72.1875 92 C72.60169115 93.32548064 73.01574008 94.65100572 73.4296875 95.9765625 C74.51815805 99.46114917 75.61002419 102.94466102 76.70274353 106.42791748 C77.53272819 109.07620694 78.36016948 111.72528727 79.18716431 114.37451172 C79.60344223 115.70621102 80.02073684 117.03759296 80.4390564 118.36865234 C81.03101411 120.25275557 81.61909949 122.1380741 82.20703125 124.0234375 C82.72487183 125.67738525 82.72487183 125.67738525 83.25317383 127.36474609 C84 130 84 130 84 132 C70.14 132 56.28 132 42 132 C41.01 128.4525 40.02 124.905 39 121.25 C38.68675781 120.13786133 38.37351562 119.02572266 38.05078125 117.87988281 C37.80714844 116.99655273 37.56351563 116.11322266 37.3125 115.203125 C37.06113281 114.30239258 36.80976562 113.40166016 36.55078125 112.47363281 C36 110 36 110 36 106 C24.12 106 12.24 106 0 106 C-0.33 107.65 -0.66 109.3 -1 111 C-1.51585264 112.70246363 -2.06016796 114.39649777 -2.62890625 116.08203125 C-2.91064697 116.9222583 -3.1923877 117.76248535 -3.48266602 118.62817383 C-3.83901123 119.67900146 -4.19535645 120.7298291 -4.5625 121.8125 C-5.696875 125.174375 -6.83125 128.53625 -8 132 C-18.89 132 -29.78 132 -41 132 C-38.36377345 122.77320708 -35.67646869 113.59197135 -32.8125 104.4375 C-32.21962228 102.53477616 -31.62674722 100.6320515 -31.0340271 98.72927856 C-30.42502984 96.7749324 -29.81534769 94.82080088 -29.20556641 92.86669922 C-27.29653081 86.74669675 -25.39898878 80.62312556 -23.5 74.5 C-22.75005125 72.08331743 -22.00005114 69.66665079 -21.25 67.25 C-20.87875 66.05375 -20.5075 64.8575 -20.125 63.625 C-19 60 -17.875 56.375 -16.75 52.75 C-16.37810547 51.55157471 -16.00621094 50.35314941 -15.62304688 49.1184082 C-14.87978295 46.72364414 -14.13629668 44.32894908 -13.39257812 41.93432617 C-11.62664807 36.24742619 -9.86308801 30.55982032 -8.1072998 24.86978149 C-7.27349548 22.16812636 -6.43843445 19.4668604 -5.60327148 16.765625 C-5.01097618 14.848036 -4.42050979 12.92988239 -3.83007812 11.01171875 C-3.47365234 9.85929687 -3.11722656 8.706875 -2.75 7.51953125 C-2.27820313 5.98969604 -2.27820313 5.98969604 -1.796875 4.42895508 C-1 2 -1 2 0 0 Z " fill="#020202" transform="translate(713,334)"/>
<path d="M0 0 C31.35 0 62.7 0 95 0 C95 10.56 95 21.12 95 32 C76.52 32 58.04 32 39 32 C39 38.93 39 45.86 39 53 C53.19 53 67.38 53 82 53 C82 62.9 82 72.8 82 83 C67.81 83 53.62 83 39 83 C39 99.17 39 115.34 39 132 C26.13 132 13.26 132 0 132 C0 88.44 0 44.88 0 0 Z " fill="#020202" transform="translate(247,526)"/>
<path d="M0 0 C31.02 0 62.04 0 94 0 C94 10.56 94 21.12 94 32 C84.76 32 75.52 32 66 32 C66 65 66 98 66 132 C53.46 132 40.92 132 28 132 C28 99 28 66 28 32 C18.76 32 9.52 32 0 32 C0 21.44 0 10.88 0 0 Z " fill="#020202" transform="translate(583,334)"/>
<path d="M0 0 C13.2 0 26.4 0 40 0 C40 43.56 40 87.12 40 132 C26.8 132 13.6 132 0 132 C0 88.44 0 44.88 0 0 Z " fill="#000000" transform="translate(294,334)"/>
<path d="M0 0 C6.61058415 3.64413246 9.06028661 10.2500966 11.296875 17.12890625 C14.86703449 31.7713847 14.61908714 49.45889809 8.875 63.5 C3.23248769 72.66633809 3.23248769 72.66633809 -2.421875 74.0703125 C-8.10431113 74.87962916 -12.09327554 74.55849918 -17.125 71.5 C-23.92904307 65.32889117 -26.69939013 55.03117689 -27.28613281 46.02734375 C-27.80047737 14.30544195 -27.80047737 14.30544195 -18.125 2.5 C-12.64704231 -2.34830738 -6.59496315 -2.77161678 0 0 Z " fill="#FAFAFA" transform="translate(534.125,555.5)"/>
<path d="M0 0 C6.64683073 3.72743841 9.16078497 10.44703839 11.19506836 17.46728516 C12.29909321 22.89005967 12.25543967 28.32232649 12.20361328 33.83984375 C12.187577 35.86527409 12.20351195 37.8886937 12.22265625 39.9140625 C12.19128099 50.58164965 11.63536856 61.46016065 4.4765625 69.94140625 C0.76862009 73.41433823 -3.29297778 74.62591575 -8.25 74.9375 C-13.98046308 74.30078188 -16.63966012 71.90042656 -20.8125 68.125 C-30.13377486 55.72679945 -28.7240983 35.57019503 -26.87402344 21.03759766 C-25.28334851 12.24006689 -21.6371643 5.24708573 -14.8125 -0.5 C-9.58868874 -2.49002334 -5.0497039 -2.14374222 0 0 Z " fill="#FCFCFC" transform="translate(661.1875,555.5)"/>
<path d="M0 0 C5.45348239 2.7267412 9.67489313 6.67348691 11.94140625 12.36328125 C14.64130602 20.95861434 15.18166319 29.2963282 15.1875 38.25 C15.19974609 39.22324219 15.21199219 40.19648437 15.22460938 41.19921875 C15.24551341 51.69304272 14.22145222 62.22048874 8 71 C4.34076882 74.54737695 0.58719672 76.27415885 -4.5 76.625 C-9.58719672 76.27415885 -13.34076882 74.54737695 -17 71 C-24.03068518 61.07852548 -24.39228319 48.88102462 -24.375 37.125 C-24.37338867 35.98256836 -24.37177734 34.84013672 -24.37011719 33.66308594 C-24.21815782 23.22556279 -22.9795742 13.24858769 -16 5 C-10.66589667 0.30090897 -7.03216543 -0.8433847 0 0 Z " fill="#FCFCFC" transform="translate(405,554)"/>
<path d="M0 0 C18.37327189 0 18.37327189 0 24.9609375 5.6953125 C33.96925409 15.08372683 35.56959659 26.91690431 35.3515625 39.41796875 C34.86095226 49.17039337 31.24906713 59.46901366 24.47265625 66.609375 C16.16658265 73.32786113 11.78266113 72 0 72 C0 48.24 0 24.48 0 0 Z " fill="#F8F8F8" transform="translate(763,556)"/>
<path d="M0 0 C2.46523347 2.46523347 2.76821379 4.20739339 3.65625 7.56640625 C3.95660156 8.69240234 4.25695312 9.81839844 4.56640625 10.97851562 C5.02853516 12.75258789 5.02853516 12.75258789 5.5 14.5625 C5.96212891 16.2959668 5.96212891 16.2959668 6.43359375 18.06445312 C8.09945131 24.35967879 9.58566027 30.63547119 11 37 C4.07 37 -2.86 37 -10 37 C-7.74885426 25.74427131 -7.74885426 25.74427131 -6.5625 21.640625 C-6.17964844 20.30837891 -6.17964844 20.30837891 -5.7890625 18.94921875 C-5.52867187 18.05847656 -5.26828125 17.16773438 -5 16.25 C-4.73960937 15.34378906 -4.47921875 14.43757813 -4.2109375 13.50390625 C-2.89992784 8.96834254 -1.53767595 4.46517439 0 0 Z " fill="#F6F6F6" transform="translate(730,374)"/>
</svg>
